# xmcd
#
# Track frame offsets:
#	150
#	33847
#	59459
#	81717
#	111643
#	138683
#	166689
#	180170
#	208037
#	224672
#	255738
#	281699
#	310301
#
# Disc length: 4518 seconds
#
# Revision: 0
# Processed by: cddbd v1.5.1PL0 Copyright (c) Steve Scherf et al.
# Submitted via: EasyCDDAExtractor 7.1.2.1
#
DISCID=ca11a40d
DTITLE=Deep Purple - Paicey's Birthday In Paris - CD 1
DYEAR=2003
DGENRE=Hard Rock
TTITLE0=Highway Star
TTITLE1=Knocking At Your Back Door
TTITLE2=Pictures Of Home
TTITLE3=Lazy
TTITLE4=Haunted
TTITLE5=Speed King
TTITLE6=Well Dressed Guitar
TTITLE7=I've Got Your Number
TTITLE8=Don Solo
TTITLE9=Perfect Strangers
TTITLE10=Steve Solo
TTITLE11=Smoke On The Water
TTITLE12=Space Truckin'
EXTD=
EXTT0=
EXTT1=
EXTT2=
EXTT3=
EXTT4=
EXTT5=
EXTT6=
EXTT7=
EXTT8=
EXTT9=
EXTT10=
EXTT11=
EXTT12=
PLAYORDER=
